<?xml version="1.0" encoding="utf-8"?>
<!-- Generator: Adobe Illustrator 19.1.0, SVG Export Plug-In . SVG Version: 6.00 Build 0)  -->
<svg version="1.1" id="Layer_1" xmlns="http://www.w3.org/2000/svg" xmlns:xlink="http://www.w3.org/1999/xlink" x="0px" y="0px"
	 width="792px" height="612px" viewBox="0 0 792 612" style="enable-background:new 0 0 792 612;" xml:space="preserve">
<style type="text/css">
	.st0{fill:#FFFFFF;}
</style>
<path class="st0" d="M174.7,319.5c0-122.9,99.7-222.6,222.5-222.4c122.7,0.2,222.1,99.7,222.1,222.4c0,122.9-99.9,222.8-222.5,222.5
	C274,541.6,174.7,442.2,174.7,319.5z M373.3,307.6c2.7-1.1,4.2-1.8,5.6-2.4c7.2-3,12.7-7.9,16.1-15c10.3-21.5,0.3-50.8-21.1-61.4
	c-9.2-4.6-18.9-6-29.1-6c-30,0.1-60,0-90,0c-1.6,0-3.2,0.2-4.9,0.2c0,61.8,0,123.2,0,184.9c1.6,0.1,2.8,0.2,4.1,0.2
	c31,0,62,0.1,93-0.1c4.5,0,9-0.4,13.4-1.3c21.7-4.5,37.8-15.6,43-38.4c2.9-12.5,2.5-25.2-1.6-37.5
	C397.5,317.9,389,309.3,373.3,307.6z M547.1,363.1c-11.1,0-21.6,0-32.3,0c-1.4,10.7-8.1,16.3-17.9,18.3c-5.2,1.1-10.6,1.6-15.9,1.3
	c-18.4-1.3-30.6-15.1-28.3-32.1c1.9,0,3.8,0,5.8,0c28.3,0,56.7-0.1,85,0.1c3.9,0,5.6-1.2,5.3-5c-0.6-8.3-0.4-16.7-2-24.8
	c-4.6-24.3-17.4-42.1-42.5-48.2c-8.5-2-17.5-2.7-26.2-2.3c-23.6,1-42.9,10.6-54.8,31.9c-11.5,20.7-14.1,42.8-7.2,65.6
	c6,19.6,18.6,33.2,38.1,39.9c14.1,4.8,28.8,5.3,43.5,3.7c10.2-1.1,19.9-3.9,28.7-9.3C540.7,393.3,547,380.1,547.1,363.1z M520,234.2
	c-25.2,0-50.5,0-75.8,0c0,7.5,0,14.7,0,22.1c25.4,0,50.5,0,75.8,0C520,248.9,520,241.8,520,234.2z"/>
<path class="st0" d="M292.4,326c18.8,0,37.3-0.4,55.7,0.2c7.8,0.2,13,5.6,15.7,12.8c2.6,7.2,2.8,14.7,0.7,22.1
	c-2.2,7.9-7.6,13.3-15.5,13.6c-18.7,0.7-37.5,0.2-56.6,0.2C292.4,358.7,292.4,342.7,292.4,326z"/>
<path class="st0" d="M292.3,296.9c0-13.9,0-27.2,0-41.1c4.5,0,8.8,0,13.1,0c12.7,0,25.3,0,38,0c8.7,0,14.1,3.9,15.2,12.5
	c0.7,6.1,0.2,12.6-0.9,18.8c-0.9,5.5-5,9.5-10.7,9.6C328.9,297.1,310.8,296.9,292.3,296.9z"/>
<path class="st0" d="M512.5,325.6c-20.2,0-40.1,0-60,0c0.2-15.1,14.8-28.3,31.5-28.5C501,296.9,511.8,307.5,512.5,325.6z"/>
</svg>
