<?xml version="1.0" encoding="utf-8"?>
<!-- Generator: Adobe Illustrator 19.1.0, SVG Export Plug-In . SVG Version: 6.00 Build 0)  -->
<svg version="1.1" id="Layer_1" xmlns="http://www.w3.org/2000/svg" xmlns:xlink="http://www.w3.org/1999/xlink" x="0px" y="0px"
	 width="800px" height="800px" viewBox="0 0 800 800" style="enable-background:new 0 0 800 800;" xml:space="preserve">
<style type="text/css">
	.st0{fill:#FFFFFF;}
</style>
<image style="display:none;overflow:visible;" width="800" height="800" xlink:href="84FF599EEA9DA3C8.png" >
</image>
<g>
	<path class="st0" d="M0.8,760c0-239.4,0-478.9,0-718.3c0.4-1,0.9-2,1.1-3.1C4.4,20.6,18.9,5.2,36.5,2c1.7-0.3,3.4-0.8,5.2-1.2
		c239.4,0,478.9,0,718.3,0c0.9,0.3,1.8,0.9,2.7,1c22.6,3.7,37.9,21.6,37.9,44.6c0,236.2,0,472.5,0,708.7c0,3.8-0.5,7.8-1.4,11.5
		c-5,20.4-22.4,33.9-43.8,33.9c-65.7,0-131.4,0-197.1,0c-1.5,0-2.9,0-4.3,0c0-103.5,0-206.3,0-309.5c1.9,0,3.6,0,5.2,0
		c30.4,0,60.8,0,91.2,0c8.2,0,6.8,1.1,7.9-7c4.7-35.9,9.3-71.8,13.9-107.7c0.8-6.5,0.9-6.5-5.5-6.5c-36,0-71.9,0-107.9,0
		c-1.6,0-3.2,0-5.2,0c0-2.1,0-3.6,0-5.1c0-23.6-0.1-47.2,0.1-70.8c0.1-6.9,0.6-13.9,1.6-20.7c2.8-19.4,13.7-31.4,32.9-35.6
		c8.3-1.8,17-2.4,25.6-2.5c19.2-0.4,38.3-0.1,57.5-0.1c1.8,0,3.5-0.2,5.7-0.3c0-1.7,0-3.1,0-4.4c0-7.8,0-15.6,0-23.3
		c0-25.1-0.1-50.3,0.1-75.4c0-4.1-0.7-6.3-5.3-6c-2.3,0.2-4.7-0.5-7-0.7c-16.2-1-32.4-2.2-48.6-2.8c-25.9-0.9-51.9-1.7-77.5,4.4
		c-41.5,9.9-73.2,32.5-92.8,70.8c-12.1,23.6-17.5,49.1-17.8,75.5c-0.3,31-0.2,61.9-0.2,92.9c0,1.3-0.2,2.7-0.3,4.2
		c-2.1,0-3.8,0-5.4,0c-31.4,0-62.8,0.1-94.2-0.1c-3.8,0-4.9,1-4.9,4.9c0.1,37.2,0.1,74.4,0,111.7c0,3.9,1.1,4.8,4.9,4.8
		c31.7-0.1,63.3-0.1,95-0.1c1.5,0,3,0,4.6,0c0.1,1.5,0.2,2.6,0.2,3.7c0,100.1,0,200.3,0,300.4c0,5.4,0,5.4-5.5,5.4
		c-90.4,0-180.8,0-271.2,0c-35.1,0-70.3,0.1-105.4,0c-20.9-0.1-38.3-13.9-43.2-34.2C1.9,764.2,1.4,762.1,0.8,760z"/>
</g>
<image style="display:none;overflow:visible;" width="626" height="626" xlink:href="84FF599EEA9DA3C8.jpg"  transform="matrix(1.278 0 0 1.278 0 0)">
</image>
<image style="display:none;overflow:visible;" width="902" height="900" xlink:href="84FF599EEA9DA3CF.png"  transform="matrix(0.8889 0 0 0.8889 0 0)">
</image>
</svg>
