<?xml version="1.0" encoding="utf-8"?>
<!-- Generator: Adobe Illustrator 19.1.0, SVG Export Plug-In . SVG Version: 6.00 Build 0)  -->
<svg version="1.1" id="Layer_1" xmlns="http://www.w3.org/2000/svg" xmlns:xlink="http://www.w3.org/1999/xlink" x="0px" y="0px"
	 width="800px" height="800px" viewBox="0 0 800 800" style="enable-background:new 0 0 800 800;" xml:space="preserve">
<style type="text/css">
	.st0{fill:#FFFFFF;}
</style>
<image style="display:none;overflow:visible;" width="800" height="800" xlink:href="70F53369E739B8E6.png" >
</image>
<image style="display:none;overflow:visible;" width="960" height="960" xlink:href="70F53369E739B8E1.png"  transform="matrix(0.8333 0 0 0.8333 0 0)">
</image>
<image style="display:none;overflow:visible;" width="626" height="626" xlink:href="70F53369E739B8E2.jpg"  transform="matrix(1.278 0 0 1.278 0 0)">
</image>
<g>
	<g>
		<path class="st0" d="M0.9,748.4c0-231.7,0-463.4,0-695.1c0.2-0.8,0.5-1.7,0.6-2.5c2.4-17.1,11-30.2,25.1-39.9
			c8.3-5.7,17.8-8.4,27.6-10c231.1,0,462.2,0,693.3,0c2.2,0.4,4.3,0.8,6.5,1.2c28.3,6,47.3,30.2,47.2,59.7
			c-0.3,226.1-0.2,452.1-0.2,678.2c0,1.3,0,2.7,0,4c-0.6,19.9-9.3,35.3-25.5,46.7c-8.4,5.9-18,8.6-28,10.2c-231.1,0-462.2,0-693.3,0
			c-0.7-0.2-1.4-0.5-2.1-0.6c-17.9-2.3-31.8-11.2-41.9-25.9C4.8,766.6,2.4,757.7,0.9,748.4z M426.8,300.7c-38.4,0-76.1,0-114.2,0
			c0,127.3,0,254.5,0,381.6c39.7,0,79.2,0,119,0c0-2.2,0-4.2,0-6.1c0.1-63.7,0.1-127.4,0.2-191.1c0-15.3,1.7-30.4,6.3-45
			c5.1-16.1,14-29.3,29.5-37c13-6.4,26.8-7.5,41-6.9c22.9,0.9,40.4,13.8,48,35.5c5.7,16.4,7.1,33.4,7.1,50.6
			c0.1,64.9,0,129.8,0,194.7c0,1.7,0,3.5,0,5.4c40,0,79.4,0,119.1,0c0.1-1.1,0.3-2.1,0.3-3.1c-0.5-81.3-0.7-162.6-1.6-243.9
			c-0.2-21-4.3-41.7-10.7-61.7c-11.9-36.9-35.1-63.2-72.8-74.7c-29.6-9.1-59.8-11-90.2-4.3c-28.4,6.3-52.3,20.6-70.4,43.7
			c-3.6,4.6-6.6,9.5-10.6,15.3C426.8,335.4,426.8,318.3,426.8,300.7z M119.5,300.7c0,127.5,0,254.7,0,381.8c39.8,0,79.3,0,118.9,0
			c0-127.4,0-254.5,0-381.8C198.7,300.7,159.3,300.7,119.5,300.7z M178.8,248.9c38.1,0,69.2-30.9,69.1-68.8
			c-0.1-38.2-30.2-69.5-69.4-69.4c-38.7,0.1-68.6,30.6-68.9,68.9C109.5,217.9,140.6,248.9,178.8,248.9z"/>
	</g>
</g>
</svg>
