<?xml version="1.0" encoding="utf-8"?>
<!-- Generator: Adobe Illustrator 19.1.0, SVG Export Plug-In . SVG Version: 6.00 Build 0)  -->
<svg version="1.1" id="Layer_1" xmlns="http://www.w3.org/2000/svg" xmlns:xlink="http://www.w3.org/1999/xlink" x="0px" y="0px"
	 width="1436.5px" height="797px" viewBox="0 0 1436.5 797" style="enable-background:new 0 0 1436.5 797;" xml:space="preserve">
<style type="text/css">
	.st0{fill:#FFFFFF;}
	.st1{fill:#231F20;}
	.st2{fill:none;}
</style>
<rect y="375.5" class="st0" width="1436.5" height="421.5"/>
<rect class="st1" width="1436.5" height="375.5"/>
<g>
	<rect x="58" y="113.2" class="st2" width="1332.5" height="331.4"/>
	<path class="st0" d="M217.9,318c5.9,0,11.4-1.2,16.5-3.7c5.1-2.5,9.6-5.9,13.5-10.1c3.9-4.3,7-9.2,9.2-14.9
		c2.2-5.7,3.4-11.7,3.4-18.1h59.6c0,14.2-2.5,27.7-7.5,40.5c-5,12.8-12.3,24.3-22,34.4c-9.7,10.2-20.8,18-33.2,23.4
		c-12.4,5.4-25.6,8.2-39.6,8.2h-0.4c-14,0-27.1-2.7-39.4-8.2c-12.3-5.4-23.4-13.3-33.4-23.4c-9.2-9.9-16.4-21.1-21.5-33.5
		c-5.1-12.4-7.7-25.5-8-39.2v-54.7c0.2-14.2,2.8-27.6,7.8-40.1c5-12.5,12.2-23.8,21.7-33.7c9.9-10.2,21.1-18,33.4-23.4
		c12.3-5.4,25.4-8.2,39.4-8.2h0.4c14,0,27.2,2.7,39.6,8.2c12.4,5.4,23.5,13.3,33.2,23.4c9.7,10.2,17,21.7,22,34.4
		c5,12.8,7.5,26.3,7.5,40.5h-59.6c0-6.4-1.1-12.4-3.4-18.1c-2.3-5.7-5.3-10.6-9.2-14.9c-3.9-4.3-8.4-7.6-13.5-10.1
		c-5.1-2.5-10.6-3.7-16.5-3.7c-5.9,0-11.5,1.2-16.7,3.7c-5.2,2.5-9.8,5.9-13.7,10.1c-3.9,4.3-7,9.2-9.2,14.9
		c-2.3,5.7-3.4,11.7-3.4,18.1v51.5c0,6.4,1.1,12.4,3.4,18.1c2.2,5.7,5.3,10.6,9.2,14.9c3.9,4.3,8.5,7.6,13.7,10.1
		C206.4,316.8,211.9,318,217.9,318z"/>
	<path class="st0" d="M478.8,275h-49l-35.5,102.2H330l91.6-264.1H487l91.6,264.1h-64.3L478.8,275z"/>
	<path class="st0" d="M656.3,377.3h-59.6V113.2h59.6V377.3z"/>
	<path class="st0" d="M857.9,172.8h-60v204.5h-59.6V172.8h-60v-59.6h179.6V172.8z"/>
	<path class="st0" d="M1007.4,317.6v59.6H877.1V113.2h59.6v204.5H1007.4z"/>
	<path class="st0" d="M1089.7,377.3h-59.6V113.2h59.6V377.3z"/>
	<path class="st0" d="M1309.8,113.2v264.1h-60.3l-74.5-147.7v147.7h-59.6V113.2h60.7l74.2,147.3V113.2H1309.8z"/>
</g>
<g>
	<rect y="437.8" class="st2" width="1436.5" height="302.8"/>
	<path class="st1" d="M361.5,595.7c0,1.2,0,2.4,0,3.5c0,1.2-0.1,2.4-0.4,3.5v99h-55v-13.5c-7.1,4.3-14.6,7.6-22.5,10.1
		c-7.9,2.5-16,3.7-24.3,3.7h-0.4c-14,0-27.2-2.7-39.6-8.2c-12.4-5.4-23.5-13.3-33.2-23.4c-9.2-9.9-16.4-21.1-21.5-33.5
		c-5.1-12.4-7.7-25.5-8-39.2v-54.7c0-14.2,2.5-27.6,7.6-40.1c5.1-12.5,12.4-23.8,21.8-33.7c9.7-10.2,20.8-18,33.2-23.4
		c12.4-5.4,25.6-8.2,39.6-8.2h0.4c13.7,0,26.8,2.7,39.2,8.2c12.4,5.4,23.6,13.3,33.5,23.4c9.5,10.2,16.7,21.7,21.8,34.4
		c5.1,12.8,7.6,26.3,7.6,40.5h-59.6c0-6.4-1.1-12.4-3.4-18.1c-2.3-5.7-5.3-10.7-9.2-14.9c-3.9-4.3-8.5-7.6-13.7-10.1
		c-5.2-2.5-10.8-3.7-16.7-3.7c-5.9,0-11.4,1.2-16.5,3.7c-5.1,2.5-9.6,5.9-13.5,10.1c-3.9,4.3-7,9.2-9.2,14.9
		c-2.3,5.7-3.4,11.7-3.4,18.1v51.5c0,6.4,1.1,12.4,3.4,18.1c2.2,5.7,5.3,10.7,9.2,14.9c3.9,4.3,8.4,7.6,13.5,10.1
		c5.1,2.5,10.6,3.7,16.5,3.7c6.9,0,13.1-1.5,18.6-4.6c5.6-3.1,10.4-7.2,14.4-12.4h-33.4v-55h103V595.7z"/>
	<path class="st1" d="M528.7,599.6h-49l-35.5,102.2H380l91.6-264.1h65.3l91.6,264.1h-64.3L528.7,599.6z"/>
	<path class="st1" d="M848.6,595.7c0,1.2,0,2.4,0,3.5c0,1.2-0.1,2.4-0.4,3.5v99h-55v-13.5c-7.1,4.3-14.6,7.6-22.5,10.1
		c-7.9,2.5-16,3.7-24.3,3.7H746c-14,0-27.2-2.7-39.6-8.2c-12.4-5.4-23.5-13.3-33.2-23.4c-9.2-9.9-16.4-21.1-21.5-33.5
		c-5.1-12.4-7.7-25.5-8-39.2v-54.7c0-14.2,2.5-27.6,7.6-40.1c5.1-12.5,12.4-23.8,21.8-33.7c9.7-10.2,20.8-18,33.2-23.4
		c12.4-5.4,25.6-8.2,39.6-8.2h0.4c13.7,0,26.8,2.7,39.2,8.2c12.4,5.4,23.6,13.3,33.5,23.4c9.5,10.2,16.7,21.7,21.8,34.4
		c5.1,12.8,7.6,26.3,7.6,40.5h-59.6c0-6.4-1.1-12.4-3.4-18.1c-2.3-5.7-5.3-10.7-9.2-14.9c-3.9-4.3-8.5-7.6-13.7-10.1
		c-5.2-2.5-10.8-3.7-16.7-3.7c-5.9,0-11.4,1.2-16.5,3.7c-5.1,2.5-9.6,5.9-13.5,10.1s-7,9.2-9.2,14.9c-2.3,5.7-3.4,11.7-3.4,18.1
		v51.5c0,6.4,1.1,12.4,3.4,18.1c2.2,5.7,5.3,10.7,9.2,14.9s8.4,7.6,13.5,10.1c5.1,2.5,10.6,3.7,16.5,3.7c6.9,0,13.1-1.5,18.6-4.6
		c5.6-3.1,10.4-7.2,14.4-12.4h-33.4v-55h103V595.7z"/>
	<path class="st1" d="M1072.2,437.8v264.1h-60.3l-74.5-147.7v147.7h-59.6V437.8h60.7l74.2,147.3V437.8H1072.2z"/>
	<path class="st1" d="M1151.4,497.4V540h75.3v59.6h-75.3v42.6h102.2v59.6h-161.9V437.8h161.9v59.6H1151.4z"/>
</g>
<g>
</g>
<g>
</g>
<g>
</g>
<g>
</g>
<g>
</g>
<g>
</g>
</svg>
