<?xml version="1.0" encoding="utf-8"?>
<!-- Generator: Adobe Illustrator 19.1.0, SVG Export Plug-In . SVG Version: 6.00 Build 0)  -->
<svg version="1.1" id="Layer_1" xmlns="http://www.w3.org/2000/svg" xmlns:xlink="http://www.w3.org/1999/xlink" x="0px" y="0px"
	 width="800px" height="800px" viewBox="0 0 800 800" style="enable-background:new 0 0 800 800;" xml:space="preserve">
<style type="text/css">
	.st0{fill:#FFFFFF;}
</style>
<image style="display:none;overflow:visible;" width="800" height="800" xlink:href="145ED3AF1F61BB0.png" >
</image>
<image style="display:none;overflow:visible;" width="960" height="960" xlink:href="145ED3AF1F61BB1.png"  transform="matrix(0.8333 0 0 0.8333 0 0)">
</image>
<g>
	<g>
		<path class="st0" d="M377,1.3c16.2,0,32.4,0,48.6,0c1.8,0.4,3.7,0.9,5.5,1.2c20,3.1,40.1,5.2,59.8,9.3
			c42.2,8.8,81.6,25.4,118.3,47.9c46.6,28.6,86,65.1,117.7,109.7c38.1,53.6,61.7,112.8,70.4,178c1.3,9.9,2.6,19.8,3.9,29.7
			c0,16.2,0,32.4,0,48.6c-0.4,1.9-0.9,3.7-1.2,5.6c-3.1,20-5.3,40.1-9.3,59.8c-6.4,32.1-18,62.5-33,91.6
			c-29.8,58-71.1,106.1-124.2,144c-53.8,38.5-113.5,62.2-179.1,70.8c-9.7,1.3-19.3,2.5-29,3.8c-16.2,0-32.4,0-48.6,0
			c-9.7-1.3-19.3-2.6-29-3.8c-45.2-5.6-88.1-19.1-128.6-39.9C161.7,727.9,113.8,686.6,76,633.7C37.5,579.9,13.7,520.2,5.1,454.6
			c-1.3-9.7-2.5-19.3-3.8-29c0-16.2,0-32.4,0-48.6c0.4-1.9,0.9-3.7,1.2-5.6c3-19.8,5-39.7,9.2-59.2c14.5-66.7,45.4-125.3,90.4-176.3
			c25.3-28.7,54.3-53.2,86.9-73.5c48.9-30.5,101.8-49.9,159-57.3C357.7,3.8,367.3,2.6,377,1.3z M152.3,188.2
			c-14.9,28-19.7,55.9-12.9,85.7c6.7,29.7,23.4,53,48.6,72c-19.7-0.5-36-6.2-52.5-14.2c-0.1,28.6,8.6,53.2,25.5,74.7
			c17.1,21.7,39.5,35.5,66.2,42.9c-16.2,4.6-32.6,4.6-50.3,2.1c19.9,50.8,56.1,77.7,110.1,82.9c-51.9,39-108.8,54.3-173.1,49
			c2.3,1.8,3,2.5,3.9,3c33.1,20.4,68.6,34.7,106.7,42.6c39.3,8.1,78.8,9.4,118.7,4.1c45.4-6,87.8-20.4,126.9-44
			c41.7-25.3,75.6-58.9,102.6-99.6c15.4-23.2,28-47.7,37.5-73.7c15-41.2,22.4-83.8,21.5-127.7c-0.1-2.4,1.7-5.4,3.5-7.3
			c14-13.9,28.5-27.3,42.4-41.3c4.3-4.3,7.4-9.9,11.1-15c-21.3,5.8-42.1,11.5-62.9,17.2c-0.3-0.7-0.7-1.4-1-2.1
			c23-15.6,40-35.7,49.5-64.1c-3.9,2-6.1,3.1-8.3,4.3c-18.4,10.1-37.9,17-58.2,22.3c-6.5,1.7-10.5,0.2-15.1-4.1
			c-28.4-25.7-61.8-35.7-99.7-29.6c-53.5,8.6-94.6,53.4-98.3,107.3c-0.8,11.8-0.1,23.6-0.1,36.5C297.6,305,216.9,263.9,152.3,188.2z
			"/>
	</g>
</g>
<image style="display:none;overflow:visible;" width="902" height="900" xlink:href="145ED3AF1F61BB7.png"  transform="matrix(0.8889 0 0 0.8889 0 0)">
</image>
</svg>
